<svg width="24" height="25" viewBox="0 0 24 25" fill="none" xmlns="http://www.w3.org/2000/svg">
<path d="M15 23.25H9C3.57 23.25 1.25 20.93 1.25 15.5V9.5C1.25 4.07 3.57 1.75 9 1.75H11C11.41 1.75 11.75 2.09 11.75 2.5C11.75 2.91 11.41 3.25 11 3.25H9C4.39 3.25 2.75 4.89 2.75 9.5V15.5C2.75 20.11 4.39 21.75 9 21.75H15C19.61 21.75 21.25 20.11 21.25 15.5V13.5C21.25 13.09 21.59 12.75 22 12.75C22.41 12.75 22.75 13.09 22.75 13.5V15.5C22.75 20.93 20.43 23.25 15 23.25Z" fill="black"/>
<path d="M8.49984 18.1901C7.88984 18.1901 7.32984 17.9701 6.91984 17.5701C6.42984 17.0801 6.21984 16.3701 6.32984 15.6201L6.75984 12.6101C6.83984 12.0301 7.21984 11.2801 7.62984 10.8701L15.5098 2.99006C17.4998 1.00006 19.5198 1.00006 21.5098 2.99006C22.5998 4.08006 23.0898 5.19006 22.9898 6.30006C22.8998 7.20006 22.4198 8.08006 21.5098 8.98006L13.6298 16.8601C13.2198 17.2701 12.4698 17.6501 11.8898 17.7301L8.87984 18.1601C8.74984 18.1901 8.61984 18.1901 8.49984 18.1901ZM16.5698 4.05006L8.68984 11.9301C8.49984 12.1201 8.27984 12.5601 8.23984 12.8201L7.80984 15.8301C7.76984 16.1201 7.82984 16.3601 7.97984 16.5101C8.12984 16.6601 8.36984 16.7201 8.65984 16.6801L11.6698 16.2501C11.9298 16.2101 12.3798 15.9901 12.5598 15.8001L20.4398 7.92006C21.0898 7.27006 21.4298 6.69006 21.4798 6.15006C21.5398 5.50006 21.1998 4.81006 20.4398 4.04006C18.8398 2.44006 17.7398 2.89006 16.5698 4.05006Z" fill="black"/>
<path d="M19.8501 10.33C19.7801 10.33 19.7101 10.32 19.6501 10.3C17.0201 9.56003 14.9301 7.47003 14.1901 4.84003C14.0801 4.44003 14.3101 4.03003 14.7101 3.91003C15.1101 3.80003 15.5201 4.03003 15.6301 4.43003C16.2301 6.56003 17.9201 8.25003 20.0501 8.85003C20.4501 8.96003 20.6801 9.38003 20.5701 9.78003C20.4801 10.12 20.1801 10.33 19.8501 10.33Z" fill="black"/>
</svg>
