<svg width="21" height="20" viewBox="0 0 21 20" fill="none" xmlns="http://www.w3.org/2000/svg">
<path d="M19.2985 9.68272L16.569 12.3132C16.1943 12.6738 15.9397 13.395 16.0175 13.9112L16.4417 16.9942C16.7175 18.967 15.4942 19.8226 13.7265 18.9034L10.7283 17.3336C10.2263 17.072 9.40603 17.0861 8.91813 17.376L6.29476 18.9105C4.22294 20.1196 2.9855 19.2075 3.53704 16.874L4.30779 13.6142C4.44921 13.0203 4.18758 12.2071 3.74211 11.804L1.26016 9.56251C-0.514677 7.95738 -0.0197022 6.50074 2.37032 6.31689L5.39673 6.09062C5.96242 6.04819 6.64831 5.60272 6.90994 5.10067L8.47972 2.08839C9.40603 0.327699 10.898 0.33477 11.7961 2.10961L13.1961 4.88147C13.4365 5.34816 14.0447 5.80071 14.5608 5.87849L18.3085 6.4866C20.3308 6.82601 20.7763 8.26144 19.2985 9.68272Z" fill="#E89F29"/>
</svg>
